<?xml version="1.0" encoding="UTF-8"?><svg id="Layer_1" xmlns="http://www.w3.org/2000/svg" viewBox="0 0 200 42.23"><defs><style>.cls-1{fill:#fff;stroke-width:0px;}</style></defs><path class="cls-1" d="M31.13,33.23c.05,0,.1-.01.16-.01.3-.02.59-.09.85-.19.39-.15.74-.37,1.06-.68.11-.11.21-.23.31-.36.08-.1.15-.2.23-.31.36-.54.59-1.16.73-1.87.11-.05.21-.11.31-.17.7-.45,1.16-1.23,1.16-2.11,0-.11,0-.22-.02-.32-.05-.42-.21-.81-.45-1.13-.2-.28-.45-.51-.74-.69-.2-.12-.43-.22-.66-.28-.37-1.28-.94-2.73-1.69-4.34l-.33.15-.06.03-.52.25h0s-.43.2-.43.2l-.48.22c.17.37.33.73.49,1.07.05.12.1.24.16.37.07.16.13.31.19.46.27.68.5,1.32.68,1.91-.27.18-.5.4-.69.66-.03.04-.06.08-.08.13-.09.15-.17.32-.23.49-.09.26-.14.54-.14.83s.06.59.15.85c.04.11.09.22.14.32.12.22.27.42.44.6.21.22.47.39.75.52-.08.29-.2.55-.35.77-.17.25-.32.4-.47.5-.16.1-.32.13-.46.14-.01,0-.03,0-.04,0,0,0-.02,0-.03,0l.03.94v.06s0,0,0,0l.03,1ZM31.63,28.47c-.15-.28-.23-.6-.23-.95,0-.22.04-.44.1-.64.13-.4.38-.74.71-.98.27-.2.59-.34.93-.39.06,0,.12-.01.19-.02.04,0,.07,0,.11,0,.28,0,.54.06.78.16.08.04.16.08.24.12.3.18.55.43.73.72.18.3.28.65.28,1.03,0,.71-.36,1.33-.91,1.69-.23.15-.5.26-.78.31-.03,0-.07.01-.1.02-.06,0-.12.01-.18.01-.02,0-.04,0-.06,0-.24,0-.47-.04-.69-.12-.08-.03-.16-.06-.23-.1-.38-.19-.68-.49-.88-.87Z"/><path class="cls-1" d="M51.55,28.33c.23,0,.44-.08.61-.2.26-.19.44-.5.44-.85,0-.22-.07-.43-.19-.6-.08-.11-.17-.2-.28-.27-.17-.11-.36-.17-.58-.17-.12,0-.23.02-.33.06-.42.14-.72.53-.72.99,0,.58.47,1.05,1.05,1.05ZM51.55,26.47c.38,0,.7.27.79.62.01.06.02.12.02.19,0,.16-.05.31-.13.44-.14.22-.4.37-.68.37-.45,0-.81-.36-.81-.81s.36-.81.81-.81Z"/><path class="cls-1" d="M51.09,34.41c.08,0,.16-.01.23-.03.18-.04.33-.13.46-.24.18-.16.3-.37.34-.61,0-.05.02-.11.02-.16,0-.15-.03-.29-.09-.41-.09-.22-.26-.39-.47-.5-.15-.08-.32-.13-.5-.13-.06,0-.11,0-.16.02-.23.04-.44.15-.6.31-.18.19-.29.44-.29.72,0,.18.05.35.14.51.18.32.52.55.92.55ZM51.09,32.55c.32,0,.59.18.72.45.05.11.09.23.09.36,0,.45-.36.81-.81.81-.31,0-.57-.17-.71-.42-.06-.12-.1-.25-.1-.39,0-.45.36-.81.81-.81Z"/><path class="cls-1" d="M42.28,10.53s.02,0,.04,0c.58,0,1.05-.47,1.05-1.05s-.47-1.05-1.05-1.05c-.4,0-.75.23-.93.57-.08.15-.12.31-.12.48,0,.57.45,1.03,1.01,1.05ZM41.63,9.05c.14-.23.4-.38.68-.38.45,0,.81.36.81.81s-.36.81-.81.81c-.05,0-.1,0-.15-.01-.38-.07-.67-.4-.67-.8,0-.16.05-.31.13-.43Z"/><path class="cls-1" d="M35.56,20.83c.06,0,.12,0,.18-.02.38-.07.68-.34.81-.69.04-.11.06-.22.06-.34,0-.42-.25-.79-.61-.95-.13-.06-.28-.1-.44-.1-.23,0-.44.08-.61.2-.26.19-.44.5-.44.85,0,.58.47,1.05,1.05,1.05ZM35.05,19.15c.14-.12.32-.19.51-.19.26,0,.49.12.63.31.09.11.15.24.17.39,0,.04.01.07.01.11,0,.42-.32.76-.72.8-.03,0-.06,0-.09,0-.45,0-.81-.36-.81-.81,0-.25.12-.47.3-.62Z"/><path class="cls-1" d="M33.06,28.5c.12.05.24.07.38.07.05,0,.11,0,.16-.02.02,0,.04,0,.06,0,.27-.06.51-.22.65-.45.05-.07.09-.16.11-.24.04-.11.06-.22.06-.33,0-.39-.22-.73-.54-.91-.14-.08-.29-.12-.46-.13-.02,0-.03,0-.05,0-.02,0-.03,0-.05,0-.4.02-.74.27-.9.61-.06.13-.1.28-.1.43,0,.23.08.44.21.62.12.16.28.29.47.36ZM33.43,26.71s0,0,0,0c.03,0,.05,0,.08,0,.11.01.22.05.32.1.25.14.42.4.42.7,0,.37-.26.69-.6.78-.02,0-.03.01-.05.02-.05.01-.11.02-.16.02-.1,0-.2-.02-.29-.05-.31-.12-.52-.41-.52-.76,0-.45.36-.81.81-.81Z"/><path class="cls-1" d="M36.03,32.31s-.02,0-.03,0c-.56.02-1.02.48-1.02,1.05,0,.13.03.25.07.37,0,0,0,.02,0,.02.13.32.4.55.74.63.07.02.15.03.23.03.58,0,1.05-.47,1.05-1.05,0-.23-.07-.43-.19-.6-.18-.26-.48-.43-.81-.44-.02,0-.03,0-.05,0ZM36.76,33c.05.11.09.23.09.36,0,.45-.36.81-.81.81-.02,0-.03,0-.05,0-.37-.02-.68-.29-.75-.64,0,0,0,0,0-.01,0-.05-.02-.1-.02-.15,0-.39.27-.71.64-.79.02,0,.04,0,.06,0,.04,0,.07-.01.11-.01.32,0,.59.19.72.45Z"/><path class="cls-1" d="M48.92,7.81c-.17-.12-.38-.19-.6-.19-.53,0-.96.39-1.04.9,0,.05-.02.1-.02.15,0,.58.47,1.05,1.05,1.05.54,0,.98-.41,1.04-.93,0-.04.01-.08.01-.12,0-.32-.15-.61-.38-.8-.02-.02-.04-.04-.07-.05ZM49.13,8.66c0,.45-.36.81-.81.81s-.81-.36-.81-.81c0-.1.02-.19.05-.27.11-.31.41-.54.76-.54.12,0,.23.03.33.07.28.13.48.41.48.74Z"/><path class="cls-1" d="M44.23,15.95c.58,0,1.05-.47,1.05-1.05s-.47-1.05-1.05-1.05-1.05.47-1.05,1.05.47,1.05,1.05,1.05ZM44.23,14.09c.45,0,.81.36.81.81s-.36.81-.81.81-.81-.36-.81-.81.36-.81.81-.81Z"/><path class="cls-1" d="M60.14,27.08c-2.11-4.01-5.69-6.4-9.57-7.29.44-3.05.23-6.18-.63-9.21.54-.46.88-1.14.88-1.91,0-1.38-1.13-2.51-2.51-2.51s-2.51,1.13-2.51,2.51c0,1.28.97,2.34,2.21,2.49.77,2.73.96,5.55.56,8.3-1.43-.14-2.87-.1-4.27.14-.62.11-1.23.25-1.83.42l1.32-2.65c.14.02.28.04.42.04,1.38,0,2.51-1.13,2.51-2.51s-1.13-2.51-2.51-2.51-2.51,1.13-2.51,2.51c0,.72.31,1.38.8,1.83l-1.36,2.71c-.76-2.19-1.66-4.39-2.61-6.51.72-.53,1.49-1.01,2.28-1.44.42.3.93.49,1.48.49,1.38,0,2.51-1.13,2.51-2.51s-1.13-2.51-2.51-2.51-2.51,1.13-2.51,2.51c0,.1,0,.19.02.29-.74.4-1.45.84-2.13,1.31-.68-1.44-1.37-2.81-2.03-4.09l-.88-1.7-.67,1.26-.23.43c-.31.58-.58,1.1-.83,1.57-1.22,2.35-1.4,5.1-.51,7.55.12.32.25.64.41.95.2.4.38.79.56,1.17,0,.02.02.04.02.05-.31.42-.5.93-.5,1.49,0,1.27.95,2.32,2.18,2.48.23.61.43,1.21.6,1.78.12.39.23.77.32,1.14.11.43.21.84.29,1.25.19.98.29,1.89.29,2.7,0,.61-.08,1.2-.22,1.77-.16-.03-.32-.05-.48-.05-.66,0-1.27.26-1.72.69-.49.46-.79,1.11-.79,1.82,0,.51.15.98.41,1.38-.24.17-.49.32-.76.46-.11.05-.22.1-.33.15-.19.08-.39.15-.59.21-.02,0-.04.01-.06.02-.42.12-.78.15-1.02.17-.03,0-.05,0-.07,0,0,0-.02,0-.02,0h-.04s.07,1,.07,1h0s.06.89.06.89v.12s.04,0,.04,0c.18-.01.48-.03.85-.1.23-.04.48-.09.75-.17.02,0,.04-.02.06-.02.35-.11.7-.24,1.03-.4.38-.18.75-.39,1.1-.63.26-.18.51-.36.74-.57.09,0,.18.01.27.01,1,0,1.86-.59,2.26-1.43.16-.33.25-.69.25-1.08,0-.44-.11-.85-.31-1.21.33-.95.51-1.96.51-3.02,0-.68-.06-1.41-.17-2.18-.11-.73-.27-1.51-.48-2.32-.09-.35-.19-.7-.3-1.06-.1-.33-.21-.67-.33-1.02-.09-.28-.19-.56-.3-.85.55-.46.9-1.15.9-1.93,0-1.38-1.13-2.51-2.51-2.51-.09,0-.18,0-.27.01-.14-.29-.28-.58-.42-.88-.04-.08-.07-.15-.11-.23-.31-.62-.52-1.28-.64-1.96-.27-1.54-.06-3.15.65-4.58.43.87.87,1.77,1.31,2.7.29.63.58,1.26.87,1.9.94,2.13,1.83,4.34,2.56,6.5.05.14.09.28.14.42.11.33.21.65.31.97.1.33.2.66.29.99.67,2.4,1.08,4.7,1.08,6.7,0,.3-.02.6-.04.89-.03.35-.08.7-.14,1.04-.06.33-.14.65-.23.97-.39,1.34-1.04,2.56-1.89,3.62-.25.3-.51.6-.78.87-.32.32-.66.61-1.02.89-.37.29-.77.55-1.18.78-1.51.86-3.25,1.35-5.11,1.35-1.95,0-3.78-.54-5.34-1.48-.32-.19-.64-.41-.94-.63-.29-.22-.57-.46-.83-.71-.35-.33-.69-.69-.99-1.07-.85-1.06-1.5-2.28-1.89-3.62-.09-.3-.16-.61-.22-.93-.12-.61-.18-1.24-.19-1.88,0-.03,0-.06,0-.09,0-2.06.44-4.44,1.15-6.93.08-.28.16-.56.25-.85.06-.21.13-.42.2-.63.02-.07.04-.13.06-.2.03-.08.05-.16.08-.24.02-.07.05-.14.07-.2.73-2.18,1.62-4.4,2.56-6.52.29-.65.58-1.29.87-1.91,1.42-3.04,2.88-5.79,4-7.81.45-.81.84-1.5,1.16-2.04.51-.88.82-1.4.84-1.43l-1.71-1.05c-.24.38-3.11,5.09-5.93,11.07-2.97-2.08-6.46-3.43-10.22-3.88l-.74-.09-.3.69c-1.66,3.87-2.19,8-1.61,12-1.93.46-3.73,1.28-5.27,2.44-2.76,2.07-4.64,5.11-5.42,8.79L0,33.66l2.63-.63c.64-.15,1.25-.23,1.89-.23,2.76,0,5.29,1.45,7.96,2.99,2.96,1.7,6.02,3.46,9.72,3.46.21,0,.42,0,.64-.02,2.17,1.87,4.99,3,8.07,3s5.87-1.12,8.04-2.97c.02,0,.04,0,.06,0,3.76,0,6.98-1.85,10.12-3.65.15-.09.3-.17.45-.26.42.32.94.51,1.51.51,1.38,0,2.51-1.13,2.51-2.51,0-.23-.03-.44-.09-.65-.29-1.07-1.26-1.86-2.42-1.86-1.38,0-2.51,1.13-2.51,2.51,0,.08,0,.17.01.25-.16.09-.31.18-.47.27-2.37,1.36-4.66,2.68-7.14,3.17.68-.95,1.23-2,1.63-3.13.29-.83.49-1.7.6-2.6.59-.93,1.82-2.27,4.15-2.83.55-.13,1.17-.22,1.86-.25.37.91,1.27,1.56,2.32,1.56,1.38,0,2.51-1.13,2.51-2.51s-1.13-2.51-2.51-2.51c-1,0-1.87.59-2.27,1.44-.24,0-.46.02-.69.04-.95.08-1.8.27-2.54.52-1.16.4-2.07.96-2.8,1.56-.15-1.89-.58-3.94-1.19-6.07.84-.31,1.71-.55,2.58-.7,1.16-.2,2.36-.25,3.56-.15.67.05,1.33.16,1.99.31,3.24.75,6.26,2.69,8.1,6.13-.43.45-.69,1.06-.69,1.72,0,.98.56,1.82,1.38,2.24.34.17.73.27,1.13.27,1.38,0,2.51-1.13,2.51-2.51s-1.11-2.5-2.49-2.51ZM42.2,14.9c0-1.12.91-2.03,2.03-2.03s2.03.91,2.03,2.03-.91,2.03-2.03,2.03c-.07,0-.13,0-.2-.01-.51-.05-.96-.28-1.28-.64-.34-.36-.55-.85-.55-1.39ZM42.31,7.45c1.12,0,2.03.91,2.03,2.03s-.91,2.03-2.03,2.03c-.36,0-.7-.1-.99-.26-.61-.34-1.02-.98-1.04-1.72,0-.02,0-.03,0-.05,0-1.12.91-2.03,2.03-2.03ZM37.3,31.77c.32.26.57.61.68,1.02.05.18.08.37.08.57,0,.65-.31,1.23-.79,1.6-.25.2-.55.33-.87.39-.05,0-.09.02-.14.02-.08,0-.15.01-.23.01-.36,0-.69-.09-.98-.25-.26-.14-.48-.34-.65-.57-.03-.04-.06-.08-.08-.12-.07-.12-.14-.24-.19-.37-.08-.22-.13-.46-.13-.72,0-.31.07-.6.19-.86.32-.69,1.02-1.17,1.84-1.17.12,0,.24.01.35.03.08.01.17.03.25.06.25.08.47.2.67.35ZM34.53,18.03c.29-.17.62-.27.98-.28.02,0,.03,0,.05,0,1.12,0,2.03.91,2.03,2.03,0,.57-.23,1.08-.61,1.45-.24.24-.55.42-.88.51-.17.05-.35.08-.54.08s-.36-.03-.53-.07c-.86-.23-1.5-1.02-1.5-1.96,0-.36.09-.69.25-.98.18-.32.44-.58.75-.77ZM14.43,9.29c3.26.51,6.27,1.77,8.84,3.64-.87,1.95-1.72,3.99-2.44,6.04l-4.72-6.57,2.82,7.52c-1.32-.35-2.7-.54-4.12-.54h0c-.52,0-1.04.03-1.56.08-.48-3.39-.09-6.87,1.18-10.17ZM4.52,31.1c-.74,0-1.5.08-2.28.27,1.2-5.64,5.01-8.85,9.33-9.9.65-.16,1.32-.27,1.99-.33.41-.04.83-.06,1.24-.06,1.67,0,3.33.3,4.89.88.05.02.1.03.14.05-.02.06-.04.12-.05.19-.6,2.1-1.03,4.14-1.2,6.02-.8-.5-1.68-.87-2.59-1.09-.8-.2-1.63-.29-2.46-.29-.51,0-1.02.04-1.52.12l-.78.11-1.53.37s1.55-.01,1.55-.01c.96.06,1.93.19,2.86.46.28.08.55.17.81.28,1.71.71,3.23,2.07,3.79,3.82.12.66.28,1.3.5,1.92.46,1.3,1.12,2.5,1.96,3.57-5.97-.62-10.55-6.39-16.64-6.39ZM49.06,33.34c0-1.11.91-2.01,2.03-2.01.92,0,1.7.62,1.95,1.46.05.18.08.37.08.57,0,1.12-.91,2.03-2.03,2.03-.39,0-.75-.11-1.05-.3-.3-.18-.55-.44-.72-.75-.16-.29-.26-.63-.26-.99,0,0,0-.01,0-.02ZM49.82,26.21c.36-.58,1-.96,1.73-.96,1.12,0,2.03.91,2.03,2.03s-.91,2.03-2.03,2.03c-.78,0-1.46-.44-1.8-1.09-.15-.28-.23-.6-.23-.94,0-.39.11-.76.31-1.07ZM48.31,10.69c-.15,0-.3-.02-.45-.05-.91-.2-1.59-1.01-1.59-1.98,0-1.12.91-2.03,2.03-2.03s2.03.91,2.03,2.03c0,.54-.21,1.03-.56,1.4-.37.39-.89.64-1.47.64ZM61.58,30.99c-.24.25-.55.44-.9.54-.04.01-.07.02-.11.03l-.26.04c-.06,0-.12,0-.19,0-.16,0-.31-.02-.46-.05-.9-.21-1.57-1.01-1.57-1.98,0-.48.17-.92.45-1.27.21-.27.49-.48.81-.61.24-.1.5-.15.77-.15.09,0,.18,0,.27.02.99.13,1.76.98,1.76,2.01,0,.55-.22,1.04-.57,1.41Z"/><path class="cls-1" d="M61,29.02c-.19-.29-.51-.48-.88-.48-.13,0-.24.03-.36.07-.4.14-.68.52-.69.96,0,0,0,.01,0,.02,0,.25.09.47.23.65.19.24.49.4.82.4.11,0,.22-.02.33-.06.42-.14.72-.53.72-.99,0-.04,0-.07-.01-.11-.02-.17-.07-.32-.16-.46ZM60.38,30.35c-.08.03-.17.05-.26.05-.45,0-.81-.36-.81-.81,0-.35.23-.65.54-.76.08-.03.17-.05.27-.05.45,0,.81.36.81.81,0,.36-.23.66-.55.77Z"/><polygon class="cls-1" points="74.71 26.77 81.26 26.77 81.26 23.86 74.71 23.86 74.71 12.3 71.17 12.3 71.17 26.77 73.26 26.77 74.71 26.77"/><path class="cls-1" d="M94.39,25.01c.62-.66,1.1-1.46,1.45-2.39.34-.93.52-1.96.52-3.09s-.17-2.16-.52-3.09c-.34-.93-.83-1.73-1.45-2.39-.62-.66-1.37-1.17-2.25-1.53-.88-.36-1.86-.54-2.94-.54s-2.05.18-2.93.54-1.63.87-2.25,1.53c-.63.66-1.11,1.46-1.46,2.39s-.52,1.96-.52,3.09.17,2.16.52,3.09c.34.93.83,1.73,1.46,2.39.63.66,1.38,1.17,2.25,1.53s1.85.54,2.93.54,2.05-.18,2.94-.54c.88-.36,1.63-.87,2.25-1.53ZM90.66,23.74c-.43.21-.91.32-1.44.32s-1.02-.11-1.46-.32c-.43-.21-.81-.52-1.12-.92-.31-.4-.55-.88-.71-1.44-.17-.56-.25-1.17-.25-1.85s.09-1.31.26-1.87c.17-.56.41-1.03.71-1.43.3-.39.67-.7,1.11-.91s.92-.32,1.46-.32,1,.11,1.44.32.8.52,1.11.91c.3.39.54.87.7,1.43s.25,1.18.25,1.87-.08,1.3-.25,1.86c-.17.56-.4,1.04-.7,1.44-.3.39-.67.7-1.11.91Z"/><polygon class="cls-1" points="104.11 26.77 104.11 15.21 108.08 15.21 108.08 12.3 104.11 12.3 100.57 12.3 96.62 12.3 96.62 15.21 100.57 15.21 100.57 26.77 104.11 26.77"/><path class="cls-1" d="M118.11,21.29c0,.9-.23,1.58-.7,2.06s-1.1.71-1.9.71-1.42-.24-1.91-.71c-.49-.48-.73-1.16-.73-2.06v-8.99h-3.54v8.99c0,.91.15,1.72.44,2.43s.71,1.32,1.25,1.82c.54.5,1.18.89,1.94,1.15.76.26,1.61.39,2.54.39s1.78-.13,2.54-.39c.76-.26,1.4-.64,1.93-1.15s.94-1.11,1.23-1.82c.29-.71.43-1.52.43-2.43v-8.99h-3.54v8.99Z"/><path class="cls-1" d="M132.37,19.75c-.34-.37-.77-.7-1.29-1-.52-.3-1.14-.58-1.84-.83-.57-.21-1.03-.38-1.41-.53-.37-.15-.66-.28-.88-.4-.21-.12-.36-.25-.44-.37-.08-.13-.12-.27-.12-.43s.04-.32.11-.47c.08-.14.2-.27.36-.37s.37-.19.62-.25c.25-.06.54-.09.87-.09.56,0,1.09.08,1.56.23.48.15.87.33,1.19.54l1.74-2.25c-.44-.47-1.07-.84-1.88-1.12-.81-.28-1.69-.41-2.63-.41-.85,0-1.61.11-2.25.34-.65.23-1.18.55-1.6.95s-.74.89-.96,1.45c-.22.56-.33,1.17-.33,1.83,0,.58.09,1.1.28,1.56.19.46.45.88.81,1.26.35.38.79.71,1.31,1,.52.29,1.13.53,1.82.72.39.12.75.24,1.09.34.34.1.63.21.88.33.25.12.45.25.6.4.15.15.23.34.23.58,0,.22-.05.41-.16.58-.1.17-.25.3-.43.41-.19.11-.41.19-.68.24s-.57.07-.9.07c-.36,0-.69-.03-.99-.08s-.58-.14-.84-.25c-.26-.11-.5-.25-.72-.42s-.44-.36-.63-.55l-2.4,1.84c.7.86,1.53,1.48,2.49,1.88.96.4,1.99.6,3.09.6.85,0,1.61-.12,2.27-.36.66-.24,1.22-.57,1.68-.98.46-.41.81-.9,1.04-1.47.23-.56.35-1.18.35-1.84,0-.54-.08-1.03-.25-1.47-.17-.44-.42-.85-.76-1.21Z"/><polygon class="cls-1" points="151.42 15.21 151.42 12.3 147.45 12.3 143.91 12.3 139.96 12.3 139.96 15.21 143.91 15.21 143.91 26.77 147.45 26.77 147.45 15.21 151.42 15.21"/><path class="cls-1" d="M155.95,12.3l-5.85,14.47h3.6l1-2.65h5.28l1,2.65h3.6l-5.85-14.47h-2.77ZM159.01,21.58h-3.36l1.68-4.44,1.68,4.44Z"/><path class="cls-1" d="M173.36,20.82c.48-.18.93-.39,1.3-.65.55-.39.98-.86,1.28-1.42s.45-1.2.45-1.91-.15-1.36-.44-1.91c-.3-.56-.72-1.03-1.28-1.43-.56-.39-1.23-.69-2.03-.9-.79-.21-1.68-.31-2.66-.31h-5.13v14.47h3.54v-5.4h1.32l3.34,5.4h3.99l-3.68-5.95ZM168.4,15.21h1.47c.88,0,1.59.14,2.11.42s.79.69.79,1.23c0,.51-.26.91-.79,1.19-.52.28-1.22.42-2.09.42h-1.49v-3.27Z"/><rect class="cls-1" x="177.74" y="12.3" width="3.54" height="14.47"/><polygon class="cls-1" points="190.54 19.84 186.05 12.3 182.52 12.3 182.52 26.77 186.05 26.77 186.05 19.03 189.36 24.58 191.72 24.58 195.03 19.03 195.03 26.77 198.56 26.77 198.56 12.3 195.03 12.3 190.54 19.84"/><polygon class="cls-1" points="72.09 32.66 69.76 32.66 69.76 33.38 72.09 33.38 72.09 39.9 72.89 39.9 72.89 33.38 75.22 33.38 75.22 32.66 72.89 32.66 72.09 32.66"/><polygon class="cls-1" points="81.81 36.6 85.15 36.6 85.15 35.94 81.81 35.94 81.81 33.38 85.85 33.38 85.85 32.66 81.81 32.66 81.29 32.66 81.01 32.66 81.01 39.9 81.29 39.9 81.81 39.9 86.06 39.9 86.06 39.19 81.81 39.19 81.81 36.6"/><polygon class="cls-1" points="97.17 32.66 96.18 32.66 92.64 36.21 92.64 32.66 91.85 32.66 91.85 39.9 92.64 39.9 92.64 37.29 93.76 36.15 96.66 39.9 97.59 39.9 94.32 35.57 97.17 32.66"/><polygon class="cls-1" points="108.05 38.52 103.94 32.66 103.15 32.66 103.15 39.9 103.94 39.9 103.94 34.09 108.02 39.9 108.05 39.9 108.84 39.9 108.84 32.66 108.05 32.66 108.05 38.52"/><path class="cls-1" d="M120.6,33.54c-.3-.33-.66-.59-1.09-.77-.43-.18-.9-.27-1.42-.27s-1,.09-1.42.27c-.42.18-.79.43-1.09.77-.3.33-.54.73-.7,1.19s-.25.98-.25,1.55.08,1.08.25,1.55.4.86.7,1.19c.3.33.67.59,1.09.77.42.18.9.27,1.42.27s.99-.09,1.42-.27c.43-.18.79-.43,1.09-.77.3-.33.53-.73.7-1.19s.25-.98.25-1.55-.08-1.08-.25-1.55-.4-.86-.7-1.19ZM120.52,37.51c-.12.37-.3.69-.52.96s-.5.47-.82.61c-.32.14-.68.21-1.07.21s-.75-.07-1.07-.21c-.32-.14-.59-.34-.82-.61s-.41-.58-.53-.96c-.13-.37-.19-.79-.19-1.24s.06-.87.19-1.23.31-.69.53-.95c.23-.26.5-.46.82-.6.32-.14.68-.21,1.07-.21s.75.07,1.07.21c.32.14.6.34.82.6.22.26.4.58.52.95.12.37.19.78.19,1.23s-.06.87-.19,1.24Z"/><polygon class="cls-1" points="128.14 32.66 127.34 32.66 127.34 39.9 127.9 39.9 128.14 39.9 132.11 39.9 132.11 39.19 128.14 39.19 128.14 32.66"/><path class="cls-1" d="M143.34,33.54c-.3-.33-.66-.59-1.09-.77-.43-.18-.9-.27-1.42-.27s-1,.09-1.42.27c-.42.18-.79.43-1.09.77-.3.33-.54.73-.7,1.19s-.25.98-.25,1.55.08,1.08.25,1.55.4.86.7,1.19c.3.33.67.59,1.09.77.42.18.9.27,1.42.27s.99-.09,1.42-.27c.43-.18.79-.43,1.09-.77.3-.33.53-.73.7-1.19s.25-.98.25-1.55-.08-1.08-.25-1.55-.4-.86-.7-1.19ZM143.25,37.51c-.12.37-.3.69-.52.96s-.5.47-.82.61c-.32.14-.68.21-1.07.21s-.75-.07-1.07-.21c-.32-.14-.59-.34-.82-.61s-.41-.58-.53-.96c-.13-.37-.19-.79-.19-1.24s.06-.87.19-1.23.31-.69.53-.95c.23-.26.5-.46.82-.6.32-.14.68-.21,1.07-.21s.75.07,1.07.21c.32.14.6.34.82.6.22.26.4.58.52.95.12.37.19.78.19,1.23s-.06.87-.19,1.24Z"/><path class="cls-1" d="M152.87,37.56c0,.27-.03.51-.08.72-.05.21-.14.4-.25.55s-.27.27-.46.34c-.19.08-.42.12-.7.12-.31,0-.58-.05-.81-.15s-.43-.25-.58-.46l-.64.35c.21.3.5.54.85.73.35.19.77.29,1.26.29.4,0,.74-.06,1.02-.19s.51-.3.69-.52c.18-.22.3-.48.38-.78.08-.3.12-.63.12-.99v-4.92h-.8v4.9Z"/><path class="cls-1" d="M160.07,32.6c-.19,0-.35.06-.47.18s-.18.27-.18.46.06.35.18.46c.12.12.27.18.47.18s.35-.06.46-.18c.12-.12.18-.27.18-.46s-.06-.35-.18-.46-.27-.18-.46-.18Z"/><rect class="cls-1" x="159.69" y="34.73" width=".77" height="5.17"/><polygon class="cls-1" points="167.28 32.66 166.48 32.66 166.48 39.9 167.04 39.9 167.28 39.9 171.25 39.9 171.25 39.19 167.28 39.19 167.28 32.66"/><polygon class="cls-1" points="177.75 36.6 181.09 36.6 181.09 35.94 177.75 35.94 177.75 33.38 181.79 33.38 181.79 32.66 177.75 32.66 177.24 32.66 176.96 32.66 176.96 39.9 177.24 39.9 177.75 39.9 182 39.9 182 39.19 177.75 39.19 177.75 36.6"/><path class="cls-1" d="M191.43,36.8c.34-.1.64-.24.87-.42s.42-.41.55-.67c.13-.27.2-.56.2-.89s-.06-.64-.19-.9-.31-.49-.56-.68c-.25-.19-.56-.33-.94-.42s-.82-.14-1.33-.14h-2.24v7.24h.8v-2.95h1.67c.07,0,.11-.02.18-.02l1.83,2.97h.92l-1.9-3.08s.1,0,.15-.02ZM188.59,33.38h1.65c.59,0,1.07.12,1.42.37.35.25.53.61.53,1.07s-.18.8-.53,1.05-.83.37-1.42.37h-1.65v-2.86Z"/><path class="cls-1" d="M199.82,32.78c-.12-.12-.27-.18-.46-.18s-.35.06-.47.18-.18.27-.18.46.06.35.18.46c.12.12.27.18.47.18s.35-.06.46-.18c.12-.12.18-.27.18-.46s-.06-.35-.18-.46Z"/><rect class="cls-1" x="198.98" y="34.73" width=".77" height="5.17"/></svg>