<?xml version="1.0" encoding="utf-8"?>
<!-- Generator: Adobe Illustrator 28.2.0, SVG Export Plug-In . SVG Version: 6.00 Build 0)  -->
<svg version="1.1" id="Layer_1" xmlns="http://www.w3.org/2000/svg" xmlns:xlink="http://www.w3.org/1999/xlink" x="0px" y="0px"
	 viewBox="0 0 200 42.2" style="enable-background:new 0 0 200 42.2;" xml:space="preserve">
<style type="text/css">
	.st0{fill:none;}
	.st1{fill:#1A1A1A;}
	.st2{fill:#23BDC3;}
	.st3{fill:#414042;}
</style>
<g>
	<g>
		<path class="st0" d="M14.8,19.4L14.8,19.4c1.4,0,2.8,0.2,4.1,0.5l-2.8-7.5l4.7,6.6c0.7-2,1.6-4.1,2.4-6c-2.6-1.9-5.6-3.1-8.8-3.6
			c-1.3,3.3-1.7,6.8-1.2,10.2C13.8,19.4,14.3,19.4,14.8,19.4L14.8,19.4z"/>
		<g>
			<path class="st1" d="M51.5,25.2c-0.7,0-1.4,0.4-1.7,1c-0.2,0.3-0.3,0.7-0.3,1.1c0,0.3,0.1,0.7,0.2,0.9c0.3,0.6,1,1.1,1.8,1.1
				c1.1,0,2-0.9,2-2C53.6,26.2,52.7,25.2,51.5,25.2z M52.2,28.1c-0.2,0.1-0.4,0.2-0.6,0.2c-0.6,0-1.1-0.5-1.1-1.1
				c0-0.5,0.3-0.9,0.7-1c0.1,0,0.2-0.1,0.3-0.1c0.2,0,0.4,0.1,0.6,0.2c0.1,0.1,0.2,0.2,0.3,0.3c0.1,0.2,0.2,0.4,0.2,0.6
				C52.6,27.6,52.4,27.9,52.2,28.1z"/>
			<path class="st1" d="M51.1,31.3c-1.1,0-2,0.9-2,2c0,0,0,0,0,0c0,0.4,0.1,0.7,0.3,1c0.2,0.3,0.4,0.6,0.7,0.7
				c0.3,0.2,0.7,0.3,1.1,0.3c1.1,0,2-0.9,2-2c0-0.2,0-0.4-0.1-0.6C52.8,31.9,52,31.3,51.1,31.3z M51.3,34.4c-0.1,0-0.2,0-0.2,0
				c-0.4,0-0.7-0.2-0.9-0.5c-0.1-0.2-0.1-0.3-0.1-0.5c0-0.3,0.1-0.5,0.3-0.7c0.2-0.2,0.4-0.3,0.6-0.3c0.1,0,0.1,0,0.2,0
				c0.2,0,0.3,0.1,0.5,0.1c0.2,0.1,0.4,0.3,0.5,0.5c0.1,0.1,0.1,0.3,0.1,0.4c0,0.1,0,0.1,0,0.2c0,0.2-0.2,0.5-0.3,0.6
				C51.7,34.3,51.5,34.3,51.3,34.4z"/>
			<path class="st1" d="M44.3,9.5c0-1.1-0.9-2-2-2c-1.1,0-2,0.9-2,2c0,0,0,0,0,0c0,0.7,0.4,1.4,1,1.7c0.3,0.2,0.6,0.3,1,0.3
				C43.4,11.5,44.3,10.6,44.3,9.5z M41.3,9.5c0-0.2,0-0.3,0.1-0.5c0.2-0.3,0.5-0.6,0.9-0.6c0.6,0,1.1,0.5,1.1,1.1s-0.5,1.1-1.1,1.1
				c0,0,0,0,0,0C41.7,10.5,41.3,10,41.3,9.5z"/>
			<path class="st1" d="M35,21.7c0.2,0,0.3,0.1,0.5,0.1c0.2,0,0.4,0,0.5-0.1c0.3-0.1,0.6-0.3,0.9-0.5c0.4-0.4,0.6-0.9,0.6-1.4
				c0-1.1-0.9-2-2-2c0,0,0,0-0.1,0c-0.4,0-0.7,0.1-1,0.3c-0.3,0.2-0.6,0.4-0.8,0.8c-0.2,0.3-0.3,0.6-0.3,1
				C33.5,20.7,34.2,21.5,35,21.7z M34.9,18.9c0.2-0.1,0.4-0.2,0.6-0.2c0.2,0,0.3,0,0.4,0.1c0.4,0.2,0.6,0.5,0.6,1
				c0,0.1,0,0.2-0.1,0.3c-0.1,0.4-0.4,0.6-0.8,0.7c-0.1,0-0.1,0-0.2,0c-0.6,0-1.1-0.5-1.1-1.1C34.5,19.4,34.7,19.1,34.9,18.9z"/>
			<path class="st1" d="M35.5,27.5c0-0.4-0.1-0.7-0.3-1c-0.2-0.3-0.4-0.5-0.7-0.7c-0.1,0-0.2-0.1-0.2-0.1c-0.2-0.1-0.5-0.2-0.8-0.2
				c0,0-0.1,0-0.1,0c-0.1,0-0.1,0-0.2,0c-0.3,0-0.7,0.2-0.9,0.4c-0.3,0.2-0.6,0.6-0.7,1c-0.1,0.2-0.1,0.4-0.1,0.6
				c0,0.3,0.1,0.7,0.2,0.9c0.2,0.4,0.5,0.7,0.9,0.9c0.1,0,0.2,0.1,0.2,0.1c0.2,0.1,0.4,0.1,0.7,0.1c0,0,0,0,0.1,0c0.1,0,0.1,0,0.2,0
				c0,0,0.1,0,0.1,0c0.3,0,0.6-0.2,0.8-0.3C35.1,28.9,35.5,28.2,35.5,27.5z M34.3,28.1c-0.1,0.2-0.4,0.4-0.7,0.4c0,0,0,0-0.1,0
				c-0.1,0-0.1,0-0.2,0c-0.1,0-0.3,0-0.4-0.1c-0.2-0.1-0.4-0.2-0.5-0.4c-0.1-0.2-0.2-0.4-0.2-0.6c0-0.2,0-0.3,0.1-0.4
				c0.2-0.3,0.5-0.6,0.9-0.6c0,0,0,0,0.1,0c0,0,0,0,0,0c0.2,0,0.3,0.1,0.5,0.1c0.3,0.2,0.5,0.5,0.5,0.9c0,0.1,0,0.2-0.1,0.3
				C34.4,27.9,34.4,28,34.3,28.1z"/>
			<path class="st1" d="M37.3,31.8c-0.2-0.2-0.4-0.3-0.7-0.4c-0.1,0-0.2,0-0.2-0.1c-0.1,0-0.2,0-0.4,0c-0.8,0-1.5,0.5-1.8,1.2
				c-0.1,0.3-0.2,0.6-0.2,0.9c0,0.3,0,0.5,0.1,0.7c0,0.1,0.1,0.3,0.2,0.4c0,0,0.1,0.1,0.1,0.1c0.2,0.2,0.4,0.4,0.6,0.6
				c0.3,0.2,0.6,0.3,1,0.3c0.1,0,0.2,0,0.2,0c0,0,0.1,0,0.1,0c0.3-0.1,0.6-0.2,0.9-0.4c0.5-0.4,0.8-1,0.8-1.6c0-0.2,0-0.4-0.1-0.6
				C37.9,32.4,37.6,32,37.3,31.8z M36,34.4c-0.1,0-0.2,0-0.2,0c-0.3-0.1-0.6-0.3-0.7-0.6c0,0,0,0,0,0c0-0.1-0.1-0.2-0.1-0.4
				c0-0.6,0.5-1,1-1c0,0,0,0,0,0c0,0,0,0,0,0c0.3,0,0.6,0.2,0.8,0.4c0.1,0.2,0.2,0.4,0.2,0.6C37.1,33.9,36.6,34.4,36,34.4z"/>
			<path class="st1" d="M50.3,8.7c0-1.1-0.9-2-2-2s-2,0.9-2,2c0,1,0.7,1.8,1.6,2c0.1,0,0.3,0.1,0.4,0.1c0.6,0,1.1-0.2,1.5-0.6
				C50.1,9.7,50.3,9.2,50.3,8.7z M48.3,9.7c-0.6,0-1.1-0.5-1.1-1.1c0-0.1,0-0.1,0-0.2c0.1-0.5,0.5-0.9,1-0.9c0.2,0,0.4,0.1,0.6,0.2
				c0,0,0,0,0.1,0.1c0.2,0.2,0.4,0.5,0.4,0.8c0,0,0,0.1,0,0.1C49.3,9.3,48.9,9.7,48.3,9.7z"/>
			<path class="st1" d="M44.2,12.9c-1.1,0-2,0.9-2,2c0,0.5,0.2,1,0.5,1.4c0.3,0.4,0.8,0.6,1.3,0.6c0.1,0,0.1,0,0.2,0
				c1.1,0,2-0.9,2-2C46.3,13.8,45.4,12.9,44.2,12.9z M44.2,16c-0.6,0-1.1-0.5-1.1-1.1c0-0.6,0.5-1.1,1.1-1.1c0.6,0,1.1,0.5,1.1,1.1
				C45.3,15.5,44.8,16,44.2,16z"/>
			<path class="st1" d="M60.4,27.6c-0.1,0-0.2,0-0.3,0c-0.3,0-0.5,0.1-0.8,0.2c-0.3,0.1-0.6,0.3-0.8,0.6c-0.3,0.3-0.4,0.8-0.4,1.3
				c0,1,0.7,1.8,1.6,2c0.1,0,0.3,0.1,0.5,0.1c0.1,0,0.1,0,0.2,0l0.3,0c0,0,0.1,0,0.1,0c0.3-0.1,0.7-0.3,0.9-0.5
				c0.4-0.4,0.6-0.9,0.6-1.4C62.1,28.6,61.4,27.7,60.4,27.6z M61.2,29.6c0,0.5-0.3,0.9-0.7,1c-0.1,0-0.2,0.1-0.3,0.1
				c-0.3,0-0.6-0.2-0.8-0.4c-0.1-0.2-0.2-0.4-0.2-0.7c0,0,0,0,0,0c0-0.4,0.3-0.8,0.7-1c0.1,0,0.2-0.1,0.4-0.1c0.4,0,0.7,0.2,0.9,0.5
				c0.1,0.1,0.1,0.3,0.2,0.5C61.2,29.5,61.2,29.5,61.2,29.6z"/>
		</g>
		<g>
			<path class="st2" d="M31.6,31.1c-0.2,0.1-0.3,0.1-0.5,0.1c0,0,0,0,0,0c0,0,0,0,0,0l0,0.9l0,0.1l0,0l0,1c0.1,0,0.1,0,0.2,0
				c0.3,0,0.6-0.1,0.9-0.2c0.4-0.1,0.7-0.4,1.1-0.7c0.1-0.1,0.2-0.2,0.3-0.4c0.1-0.1,0.2-0.2,0.2-0.3c0.4-0.5,0.6-1.2,0.7-1.9
				c0.1,0,0.2-0.1,0.3-0.2c0.7-0.4,1.2-1.2,1.2-2.1c0-0.1,0-0.2,0-0.3c-0.1-0.4-0.2-0.8-0.4-1.1c-0.2-0.3-0.5-0.5-0.7-0.7
				c-0.2-0.1-0.4-0.2-0.7-0.3c-0.4-1.3-0.9-2.7-1.7-4.3L32,20.9l-0.1,0l-0.5,0.2l0,0L31,21.4l-0.5,0.2c0.2,0.4,0.3,0.7,0.5,1.1
				c0.1,0.1,0.1,0.2,0.2,0.4c0.1,0.2,0.1,0.3,0.2,0.5c0.3,0.7,0.5,1.3,0.7,1.9c-0.3,0.2-0.5,0.4-0.7,0.7c0,0-0.1,0.1-0.1,0.1
				c-0.1,0.2-0.2,0.3-0.2,0.5c-0.1,0.3-0.1,0.5-0.1,0.8c0,0.3,0.1,0.6,0.2,0.9c0,0.1,0.1,0.2,0.1,0.3c0.1,0.2,0.3,0.4,0.4,0.6
				c0.2,0.2,0.5,0.4,0.7,0.5c-0.1,0.3-0.2,0.5-0.3,0.8C31.9,30.8,31.7,31,31.6,31.1z M31.6,28.5c-0.1-0.3-0.2-0.6-0.2-0.9
				c0-0.2,0-0.4,0.1-0.6c0.1-0.4,0.4-0.7,0.7-1c0.3-0.2,0.6-0.3,0.9-0.4c0.1,0,0.1,0,0.2,0c0,0,0.1,0,0.1,0c0.3,0,0.5,0.1,0.8,0.2
				c0.1,0,0.2,0.1,0.2,0.1c0.3,0.2,0.5,0.4,0.7,0.7c0.2,0.3,0.3,0.7,0.3,1c0,0.7-0.4,1.3-0.9,1.7c-0.2,0.2-0.5,0.3-0.8,0.3
				c0,0-0.1,0-0.1,0c-0.1,0-0.1,0-0.2,0c0,0,0,0-0.1,0c-0.2,0-0.5,0-0.7-0.1c-0.1,0-0.2-0.1-0.2-0.1C32.1,29.1,31.8,28.8,31.6,28.5z
				"/>
			<path class="st2" d="M51.5,28.3c0.2,0,0.4-0.1,0.6-0.2c0.3-0.2,0.4-0.5,0.4-0.9c0-0.2-0.1-0.4-0.2-0.6c-0.1-0.1-0.2-0.2-0.3-0.3
				c-0.2-0.1-0.4-0.2-0.6-0.2c-0.1,0-0.2,0-0.3,0.1c-0.4,0.1-0.7,0.5-0.7,1C50.5,27.9,51,28.3,51.5,28.3z M51.5,26.5
				c0.4,0,0.7,0.3,0.8,0.6c0,0.1,0,0.1,0,0.2c0,0.2,0,0.3-0.1,0.4c-0.1,0.2-0.4,0.4-0.7,0.4c-0.4,0-0.8-0.4-0.8-0.8
				S51.1,26.5,51.5,26.5z"/>
			<path class="st2" d="M51.1,34.4c0.1,0,0.2,0,0.2,0c0.2,0,0.3-0.1,0.5-0.2c0.2-0.2,0.3-0.4,0.3-0.6c0-0.1,0-0.1,0-0.2
				c0-0.1,0-0.3-0.1-0.4c-0.1-0.2-0.3-0.4-0.5-0.5c-0.1-0.1-0.3-0.1-0.5-0.1c-0.1,0-0.1,0-0.2,0c-0.2,0-0.4,0.1-0.6,0.3
				c-0.2,0.2-0.3,0.4-0.3,0.7c0,0.2,0.1,0.4,0.1,0.5C50.4,34.2,50.7,34.4,51.1,34.4z M51.1,32.5c0.3,0,0.6,0.2,0.7,0.5
				c0.1,0.1,0.1,0.2,0.1,0.4c0,0.4-0.4,0.8-0.8,0.8c-0.3,0-0.6-0.2-0.7-0.4c-0.1-0.1-0.1-0.2-0.1-0.4C50.3,32.9,50.6,32.5,51.1,32.5
				z"/>
			<path class="st2" d="M42.3,10.5C42.3,10.5,42.3,10.5,42.3,10.5c0.6,0,1.1-0.5,1.1-1s-0.5-1.1-1.1-1.1c-0.4,0-0.8,0.2-0.9,0.6
				c-0.1,0.1-0.1,0.3-0.1,0.5C41.3,10,41.7,10.5,42.3,10.5z M41.6,9c0.1-0.2,0.4-0.4,0.7-0.4c0.4,0,0.8,0.4,0.8,0.8
				s-0.4,0.8-0.8,0.8c0,0-0.1,0-0.1,0c-0.4-0.1-0.7-0.4-0.7-0.8C41.5,9.3,41.5,9.2,41.6,9z"/>
			<path class="st2" d="M35.6,20.8c0.1,0,0.1,0,0.2,0c0.4-0.1,0.7-0.3,0.8-0.7c0-0.1,0.1-0.2,0.1-0.3c0-0.4-0.3-0.8-0.6-1
				c-0.1-0.1-0.3-0.1-0.4-0.1c-0.2,0-0.4,0.1-0.6,0.2c-0.3,0.2-0.4,0.5-0.4,0.8C34.5,20.4,35,20.8,35.6,20.8z M35,19.2
				c0.1-0.1,0.3-0.2,0.5-0.2c0.3,0,0.5,0.1,0.6,0.3c0.1,0.1,0.1,0.2,0.2,0.4c0,0,0,0.1,0,0.1c0,0.4-0.3,0.8-0.7,0.8c0,0-0.1,0-0.1,0
				c-0.4,0-0.8-0.4-0.8-0.8C34.8,19.5,34.9,19.3,35,19.2z"/>
			<path class="st2" d="M33.1,28.5c0.1,0,0.2,0.1,0.4,0.1c0.1,0,0.1,0,0.2,0c0,0,0,0,0.1,0c0.3-0.1,0.5-0.2,0.7-0.4
				c0-0.1,0.1-0.2,0.1-0.2c0-0.1,0.1-0.2,0.1-0.3c0-0.4-0.2-0.7-0.5-0.9c-0.1-0.1-0.3-0.1-0.5-0.1c0,0,0,0,0,0c0,0,0,0-0.1,0
				c-0.4,0-0.7,0.3-0.9,0.6c-0.1,0.1-0.1,0.3-0.1,0.4c0,0.2,0.1,0.4,0.2,0.6C32.7,28.3,32.9,28.4,33.1,28.5z M33.4,26.7
				C33.4,26.7,33.4,26.7,33.4,26.7C33.5,26.7,33.5,26.7,33.4,26.7c0.2,0,0.3,0.1,0.4,0.1c0.2,0.1,0.4,0.4,0.4,0.7
				c0,0.4-0.3,0.7-0.6,0.8c0,0,0,0,0,0c-0.1,0-0.1,0-0.2,0c-0.1,0-0.2,0-0.3-0.1c-0.3-0.1-0.5-0.4-0.5-0.8
				C32.6,27.1,33,26.7,33.4,26.7z"/>
			<path class="st2" d="M36,32.3C36,32.3,36,32.3,36,32.3c-0.6,0-1.1,0.5-1.1,1.1c0,0.1,0,0.3,0.1,0.4c0,0,0,0,0,0
				c0.1,0.3,0.4,0.6,0.7,0.6c0.1,0,0.2,0,0.2,0c0.6,0,1.1-0.5,1.1-1.1c0-0.2-0.1-0.4-0.2-0.6C36.7,32.5,36.4,32.3,36,32.3
				C36.1,32.3,36,32.3,36,32.3z M36.8,33c0.1,0.1,0.1,0.2,0.1,0.4c0,0.4-0.4,0.8-0.8,0.8c0,0,0,0,0,0c-0.4,0-0.7-0.3-0.7-0.6
				c0,0,0,0,0,0c0,0,0-0.1,0-0.2c0-0.4,0.3-0.7,0.6-0.8c0,0,0,0,0.1,0c0,0,0.1,0,0.1,0C36.3,32.5,36.6,32.7,36.8,33z"/>
			<path class="st2" d="M48.9,7.8c-0.2-0.1-0.4-0.2-0.6-0.2c-0.5,0-1,0.4-1,0.9c0,0.1,0,0.1,0,0.2c0,0.6,0.5,1.1,1.1,1.1
				c0.5,0,1-0.4,1-0.9c0,0,0-0.1,0-0.1C49.4,8.3,49.2,8.1,48.9,7.8C49,7.8,48.9,7.8,48.9,7.8z M48.3,9.5c-0.4,0-0.8-0.4-0.8-0.8
				c0-0.1,0-0.2,0-0.3c0.1-0.3,0.4-0.5,0.8-0.5c0.1,0,0.2,0,0.3,0.1c0.3,0.1,0.5,0.4,0.5,0.7C49.1,9.1,48.8,9.5,48.3,9.5z"/>
			<path class="st2" d="M44.2,16c0.6,0,1.1-0.5,1.1-1.1c0-0.6-0.5-1.1-1.1-1.1c-0.6,0-1.1,0.5-1.1,1.1C43.2,15.5,43.6,16,44.2,16z
				 M44.2,14.1c0.4,0,0.8,0.4,0.8,0.8c0,0.4-0.4,0.8-0.8,0.8s-0.8-0.4-0.8-0.8C43.4,14.5,43.8,14.1,44.2,14.1z"/>
			<path class="st2" d="M60.1,27.1c-2.1-4-5.7-6.4-9.6-7.3c0.4-3.1,0.2-6.2-0.6-9.2c0.5-0.5,0.9-1.1,0.9-1.9c0-1.4-1.1-2.5-2.5-2.5
				s-2.5,1.1-2.5,2.5c0,1.3,1,2.3,2.2,2.5c0.8,2.7,1,5.6,0.6,8.3c-1.4-0.1-2.9-0.1-4.3,0.1c-0.6,0.1-1.2,0.2-1.8,0.4l1.3-2.6
				c0.1,0,0.3,0,0.4,0c1.4,0,2.5-1.1,2.5-2.5c0-1.4-1.1-2.5-2.5-2.5c-1.4,0-2.5,1.1-2.5,2.5c0,0.7,0.3,1.4,0.8,1.8l-1.4,2.7
				c-0.8-2.2-1.7-4.4-2.6-6.5c0.7-0.5,1.5-1,2.3-1.4c0.4,0.3,0.9,0.5,1.5,0.5c1.4,0,2.5-1.1,2.5-2.5c0-1.4-1.1-2.5-2.5-2.5
				c-1.4,0-2.5,1.1-2.5,2.5c0,0.1,0,0.2,0,0.3c-0.7,0.4-1.4,0.8-2.1,1.3c-0.7-1.4-1.4-2.8-2-4.1l-0.9-1.7l-0.7,1.3L33.9,7
				c-0.3,0.6-0.6,1.1-0.8,1.6c-1.2,2.3-1.4,5.1-0.5,7.6c0.1,0.3,0.3,0.6,0.4,1c0.2,0.4,0.4,0.8,0.6,1.2c0,0,0,0,0,0.1
				c-0.3,0.4-0.5,0.9-0.5,1.5c0,1.3,0.9,2.3,2.2,2.5c0.2,0.6,0.4,1.2,0.6,1.8c0.1,0.4,0.2,0.8,0.3,1.1c0.1,0.4,0.2,0.8,0.3,1.2
				c0.2,1,0.3,1.9,0.3,2.7c0,0.6-0.1,1.2-0.2,1.8c-0.2,0-0.3,0-0.5,0c-0.7,0-1.3,0.3-1.7,0.7c-0.5,0.5-0.8,1.1-0.8,1.8
				c0,0.5,0.2,1,0.4,1.4c-0.2,0.2-0.5,0.3-0.8,0.5c-0.1,0.1-0.2,0.1-0.3,0.1c-0.2,0.1-0.4,0.2-0.6,0.2c0,0,0,0-0.1,0
				c-0.4,0.1-0.8,0.2-1,0.2c0,0-0.1,0-0.1,0c0,0,0,0,0,0l0,0l0.1,1l0,0l0.1,0.9l0,0.1l0,0c0.2,0,0.5,0,0.8-0.1
				c0.2,0,0.5-0.1,0.8-0.2c0,0,0,0,0.1,0c0.4-0.1,0.7-0.2,1-0.4c0.4-0.2,0.8-0.4,1.1-0.6c0.3-0.2,0.5-0.4,0.7-0.6c0.1,0,0.2,0,0.3,0
				c1,0,1.9-0.6,2.3-1.4c0.2-0.3,0.2-0.7,0.2-1.1c0-0.4-0.1-0.9-0.3-1.2c0.3-0.9,0.5-2,0.5-3c0-0.7-0.1-1.4-0.2-2.2
				c-0.1-0.7-0.3-1.5-0.5-2.3c-0.1-0.3-0.2-0.7-0.3-1.1c-0.1-0.3-0.2-0.7-0.3-1c-0.1-0.3-0.2-0.6-0.3-0.8c0.6-0.5,0.9-1.2,0.9-1.9
				c0-1.4-1.1-2.5-2.5-2.5c-0.1,0-0.2,0-0.3,0c-0.1-0.3-0.3-0.6-0.4-0.9c0-0.1-0.1-0.2-0.1-0.2c-0.3-0.6-0.5-1.3-0.6-2
				c-0.3-1.5-0.1-3.1,0.6-4.6c0.4,0.9,0.9,1.8,1.3,2.7c0.3,0.6,0.6,1.3,0.9,1.9c0.9,2.1,1.8,4.3,2.6,6.5c0,0.1,0.1,0.3,0.1,0.4
				c0.1,0.3,0.2,0.6,0.3,1c0.1,0.3,0.2,0.7,0.3,1c0.7,2.4,1.1,4.7,1.1,6.7c0,0.3,0,0.6,0,0.9c0,0.4-0.1,0.7-0.1,1
				c-0.1,0.3-0.1,0.7-0.2,1c-0.4,1.3-1,2.6-1.9,3.6c-0.2,0.3-0.5,0.6-0.8,0.9c-0.3,0.3-0.7,0.6-1,0.9c-0.4,0.3-0.8,0.5-1.2,0.8
				c-1.5,0.9-3.3,1.3-5.1,1.3c-1.9,0-3.8-0.5-5.3-1.5c-0.3-0.2-0.6-0.4-0.9-0.6c-0.3-0.2-0.6-0.5-0.8-0.7c-0.4-0.3-0.7-0.7-1-1.1
				c-0.9-1.1-1.5-2.3-1.9-3.6c-0.1-0.3-0.2-0.6-0.2-0.9c-0.1-0.6-0.2-1.2-0.2-1.9c0,0,0-0.1,0-0.1c0-2.1,0.4-4.4,1.2-6.9
				c0.1-0.3,0.2-0.6,0.3-0.8c0.1-0.2,0.1-0.4,0.2-0.6c0-0.1,0-0.1,0.1-0.2c0-0.1,0.1-0.2,0.1-0.2c0-0.1,0-0.1,0.1-0.2
				c0.7-2.2,1.6-4.4,2.6-6.5c0.3-0.6,0.6-1.3,0.9-1.9c1.4-3,2.9-5.8,4-7.8c0.4-0.8,0.8-1.5,1.2-2c0.5-0.9,0.8-1.4,0.8-1.4L30.1,0
				c-0.2,0.4-3.1,5.1-5.9,11.1c-3-2.1-6.5-3.4-10.2-3.9l-0.7-0.1l-0.3,0.7c-1.7,3.9-2.2,8-1.6,12c-1.9,0.5-3.7,1.3-5.3,2.4
				c-2.8,2.1-4.6,5.1-5.4,8.8L0,33.7L2.6,33c0.6-0.2,1.3-0.2,1.9-0.2c2.8,0,5.3,1.5,8,3c3,1.7,6,3.5,9.7,3.5c0.2,0,0.4,0,0.6,0
				c2.2,1.9,5,3,8.1,3c3.1,0,5.9-1.1,8-3c0,0,0,0,0.1,0c3.8,0,7-1.8,10.1-3.7c0.1-0.1,0.3-0.2,0.5-0.3c0.4,0.3,0.9,0.5,1.5,0.5
				c1.4,0,2.5-1.1,2.5-2.5c0-0.2,0-0.4-0.1-0.7c-0.3-1.1-1.3-1.9-2.4-1.9c-1.4,0-2.5,1.1-2.5,2.5c0,0.1,0,0.2,0,0.2
				c-0.2,0.1-0.3,0.2-0.5,0.3c-2.4,1.4-4.7,2.7-7.1,3.2c0.7-1,1.2-2,1.6-3.1c0.3-0.8,0.5-1.7,0.6-2.6c0.6-0.9,1.8-2.3,4.1-2.8
				c0.6-0.1,1.2-0.2,1.9-0.3c0.4,0.9,1.3,1.6,2.3,1.6c1.4,0,2.5-1.1,2.5-2.5c0-1.4-1.1-2.5-2.5-2.5c-1,0-1.9,0.6-2.3,1.4
				c-0.2,0-0.5,0-0.7,0c-1,0.1-1.8,0.3-2.5,0.5c-1.2,0.4-2.1,1-2.8,1.6c-0.2-1.9-0.6-3.9-1.2-6.1c0.8-0.3,1.7-0.5,2.6-0.7
				c1.2-0.2,2.4-0.2,3.6-0.2c0.7,0.1,1.3,0.2,2,0.3c3.2,0.7,6.3,2.7,8.1,6.1c-0.4,0.5-0.7,1.1-0.7,1.7c0,1,0.6,1.8,1.4,2.2
				c0.3,0.2,0.7,0.3,1.1,0.3c1.4,0,2.5-1.1,2.5-2.5C62.6,28.2,61.5,27.1,60.1,27.1z M42.2,14.9c0-1.1,0.9-2,2-2c1.1,0,2,0.9,2,2
				c0,1.1-0.9,2-2,2c-0.1,0-0.1,0-0.2,0c-0.5,0-1-0.3-1.3-0.6C42.4,15.9,42.2,15.4,42.2,14.9z M42.3,7.4c1.1,0,2,0.9,2,2
				c0,1.1-0.9,2-2,2c-0.4,0-0.7-0.1-1-0.3c-0.6-0.3-1-1-1-1.7c0,0,0,0,0,0C40.3,8.4,41.2,7.4,42.3,7.4z M37.3,31.8
				c0.3,0.3,0.6,0.6,0.7,1c0.1,0.2,0.1,0.4,0.1,0.6c0,0.7-0.3,1.2-0.8,1.6c-0.3,0.2-0.5,0.3-0.9,0.4c0,0-0.1,0-0.1,0
				c-0.1,0-0.2,0-0.2,0c-0.4,0-0.7-0.1-1-0.3c-0.3-0.1-0.5-0.3-0.6-0.6c0,0-0.1-0.1-0.1-0.1c-0.1-0.1-0.1-0.2-0.2-0.4
				C34,33.9,34,33.6,34,33.4c0-0.3,0.1-0.6,0.2-0.9c0.3-0.7,1-1.2,1.8-1.2c0.1,0,0.2,0,0.4,0c0.1,0,0.2,0,0.2,0.1
				C36.9,31.5,37.1,31.6,37.3,31.8z M34.5,18c0.3-0.2,0.6-0.3,1-0.3c0,0,0,0,0.1,0c1.1,0,2,0.9,2,2c0,0.6-0.2,1.1-0.6,1.4
				c-0.2,0.2-0.5,0.4-0.9,0.5c-0.2,0-0.4,0.1-0.5,0.1c-0.2,0-0.4,0-0.5-0.1c-0.9-0.2-1.5-1-1.5-2c0-0.4,0.1-0.7,0.3-1
				C34,18.5,34.2,18.2,34.5,18z M14.4,9.3c3.3,0.5,6.3,1.8,8.8,3.6c-0.9,1.9-1.7,4-2.4,6l-4.7-6.6l2.8,7.5c-1.3-0.4-2.7-0.5-4.1-0.5
				h0h0c-0.5,0-1,0-1.6,0.1C12.8,16.1,13.1,12.6,14.4,9.3z M4.5,31.1c-0.7,0-1.5,0.1-2.3,0.3c1.2-5.6,5-8.9,9.3-9.9
				c0.7-0.2,1.3-0.3,2-0.3c0.4,0,0.8-0.1,1.2-0.1c1.7,0,3.3,0.3,4.9,0.9c0,0,0.1,0,0.1,0.1c0,0.1,0,0.1-0.1,0.2
				c-0.6,2.1-1,4.1-1.2,6c-0.8-0.5-1.7-0.9-2.6-1.1c-0.8-0.2-1.6-0.3-2.5-0.3c-0.5,0-1,0-1.5,0.1l-0.8,0.1l-1.5,0.4c0,0,1.6,0,1.6,0
				c1,0.1,1.9,0.2,2.9,0.5c0.3,0.1,0.5,0.2,0.8,0.3c1.7,0.7,3.2,2.1,3.8,3.8c0.1,0.7,0.3,1.3,0.5,1.9c0.5,1.3,1.1,2.5,2,3.6
				C15.2,36.9,10.6,31.1,4.5,31.1z M49.1,33.3c0-1.1,0.9-2,2-2c0.9,0,1.7,0.6,1.9,1.5c0.1,0.2,0.1,0.4,0.1,0.6c0,1.1-0.9,2-2,2
				c-0.4,0-0.7-0.1-1.1-0.3c-0.3-0.2-0.5-0.4-0.7-0.7C49.2,34.1,49.1,33.7,49.1,33.3C49.1,33.4,49.1,33.3,49.1,33.3z M49.8,26.2
				c0.4-0.6,1-1,1.7-1c1.1,0,2,0.9,2,2c0,1.1-0.9,2-2,2c-0.8,0-1.5-0.4-1.8-1.1c-0.1-0.3-0.2-0.6-0.2-0.9
				C49.5,26.9,49.6,26.5,49.8,26.2z M48.3,10.7c-0.2,0-0.3,0-0.4-0.1c-0.9-0.2-1.6-1-1.6-2c0-1.1,0.9-2,2-2s2,0.9,2,2
				c0,0.5-0.2,1-0.6,1.4C49.4,10.4,48.9,10.7,48.3,10.7z M61.6,31c-0.2,0.3-0.6,0.4-0.9,0.5c0,0-0.1,0-0.1,0c-0.1,0-0.2,0-0.3,0
				c-0.1,0-0.1,0-0.2,0c-0.2,0-0.3,0-0.5-0.1c-0.9-0.2-1.6-1-1.6-2c0-0.5,0.2-0.9,0.4-1.3c0.2-0.3,0.5-0.5,0.8-0.6
				c0.2-0.1,0.5-0.2,0.8-0.2c0.1,0,0.2,0,0.3,0c1,0.1,1.8,1,1.8,2C62.1,30.1,61.9,30.6,61.6,31z"/>
			<path class="st2" d="M61,29c-0.2-0.3-0.5-0.5-0.9-0.5c-0.1,0-0.2,0-0.4,0.1c-0.4,0.1-0.7,0.5-0.7,1c0,0,0,0,0,0
				c0,0.2,0.1,0.5,0.2,0.7c0.2,0.2,0.5,0.4,0.8,0.4c0.1,0,0.2,0,0.3-0.1c0.4-0.1,0.7-0.5,0.7-1c0,0,0-0.1,0-0.1
				C61.1,29.3,61.1,29.2,61,29z M60.4,30.4c-0.1,0-0.2,0-0.3,0c-0.4,0-0.8-0.4-0.8-0.8c0-0.4,0.2-0.7,0.5-0.8c0.1,0,0.2,0,0.3,0
				c0.4,0,0.8,0.4,0.8,0.8C60.9,29.9,60.7,30.2,60.4,30.4z"/>
		</g>
	</g>
	<g>
		<polygon class="st3" points="74.7,26.8 81.3,26.8 81.3,23.9 74.7,23.9 74.7,12.3 71.2,12.3 71.2,26.8 73.3,26.8 		"/>
		<path class="st3" d="M94.4,25c0.6-0.7,1.1-1.5,1.4-2.4c0.3-0.9,0.5-2,0.5-3.1c0-1.1-0.2-2.2-0.5-3.1c-0.3-0.9-0.8-1.7-1.4-2.4
			c-0.6-0.7-1.4-1.2-2.3-1.5c-0.9-0.4-1.9-0.5-2.9-0.5s-2.1,0.2-2.9,0.5s-1.6,0.9-2.3,1.5c-0.6,0.7-1.1,1.5-1.5,2.4
			c-0.3,0.9-0.5,2-0.5,3.1c0,1.1,0.2,2.2,0.5,3.1c0.3,0.9,0.8,1.7,1.5,2.4c0.6,0.7,1.4,1.2,2.3,1.5c0.9,0.4,1.9,0.5,2.9,0.5
			s2.1-0.2,2.9-0.5C93,26.2,93.8,25.7,94.4,25z M90.7,23.7c-0.4,0.2-0.9,0.3-1.4,0.3c-0.5,0-1-0.1-1.5-0.3c-0.4-0.2-0.8-0.5-1.1-0.9
			c-0.3-0.4-0.5-0.9-0.7-1.4c-0.2-0.6-0.2-1.2-0.2-1.8c0-0.7,0.1-1.3,0.3-1.9c0.2-0.6,0.4-1,0.7-1.4c0.3-0.4,0.7-0.7,1.1-0.9
			c0.4-0.2,0.9-0.3,1.5-0.3c0.5,0,1,0.1,1.4,0.3c0.4,0.2,0.8,0.5,1.1,0.9c0.3,0.4,0.5,0.9,0.7,1.4c0.2,0.6,0.2,1.2,0.2,1.9
			c0,0.7-0.1,1.3-0.2,1.9c-0.2,0.6-0.4,1-0.7,1.4C91.5,23.2,91.1,23.5,90.7,23.7z"/>
		<polygon class="st3" points="104.1,26.8 104.1,15.2 108.1,15.2 108.1,12.3 104.1,12.3 100.6,12.3 96.6,12.3 96.6,15.2 100.6,15.2 
			100.6,26.8 		"/>
		<path class="st3" d="M118.1,21.3c0,0.9-0.2,1.6-0.7,2.1c-0.5,0.5-1.1,0.7-1.9,0.7c-0.8,0-1.4-0.2-1.9-0.7
			c-0.5-0.5-0.7-1.2-0.7-2.1v-9h-3.5v9c0,0.9,0.1,1.7,0.4,2.4c0.3,0.7,0.7,1.3,1.3,1.8c0.5,0.5,1.2,0.9,1.9,1.1
			c0.8,0.3,1.6,0.4,2.5,0.4c0.9,0,1.8-0.1,2.5-0.4c0.8-0.3,1.4-0.6,1.9-1.1c0.5-0.5,0.9-1.1,1.2-1.8c0.3-0.7,0.4-1.5,0.4-2.4v-9
			h-3.5V21.3z"/>
		<path class="st3" d="M132.4,19.8c-0.3-0.4-0.8-0.7-1.3-1c-0.5-0.3-1.1-0.6-1.8-0.8c-0.6-0.2-1-0.4-1.4-0.5
			c-0.4-0.1-0.7-0.3-0.9-0.4c-0.2-0.1-0.4-0.2-0.4-0.4c-0.1-0.1-0.1-0.3-0.1-0.4c0-0.2,0-0.3,0.1-0.5c0.1-0.1,0.2-0.3,0.4-0.4
			c0.2-0.1,0.4-0.2,0.6-0.2c0.2-0.1,0.5-0.1,0.9-0.1c0.6,0,1.1,0.1,1.6,0.2c0.5,0.2,0.9,0.3,1.2,0.5l1.7-2.3
			c-0.4-0.5-1.1-0.8-1.9-1.1c-0.8-0.3-1.7-0.4-2.6-0.4c-0.9,0-1.6,0.1-2.3,0.3c-0.6,0.2-1.2,0.5-1.6,1c-0.4,0.4-0.7,0.9-1,1.4
			c-0.2,0.6-0.3,1.2-0.3,1.8c0,0.6,0.1,1.1,0.3,1.6c0.2,0.5,0.5,0.9,0.8,1.3c0.4,0.4,0.8,0.7,1.3,1c0.5,0.3,1.1,0.5,1.8,0.7
			c0.4,0.1,0.7,0.2,1.1,0.3c0.3,0.1,0.6,0.2,0.9,0.3c0.2,0.1,0.4,0.3,0.6,0.4c0.2,0.2,0.2,0.3,0.2,0.6c0,0.2-0.1,0.4-0.2,0.6
			c-0.1,0.2-0.2,0.3-0.4,0.4c-0.2,0.1-0.4,0.2-0.7,0.2s-0.6,0.1-0.9,0.1c-0.4,0-0.7,0-1-0.1c-0.3-0.1-0.6-0.1-0.8-0.2
			c-0.3-0.1-0.5-0.3-0.7-0.4s-0.4-0.4-0.6-0.5l-2.4,1.8c0.7,0.9,1.5,1.5,2.5,1.9c1,0.4,2,0.6,3.1,0.6c0.9,0,1.6-0.1,2.3-0.4
			c0.7-0.2,1.2-0.6,1.7-1c0.5-0.4,0.8-0.9,1-1.5c0.2-0.6,0.4-1.2,0.4-1.8c0-0.5-0.1-1-0.2-1.5C133,20.5,132.7,20.1,132.4,19.8z"/>
		<polygon class="st3" points="151.4,15.2 151.4,12.3 147.4,12.3 143.9,12.3 140,12.3 140,15.2 143.9,15.2 143.9,26.8 147.4,26.8 
			147.4,15.2 		"/>
		<path class="st3" d="M155.9,12.3l-5.9,14.5h3.6l1-2.6h5.3l1,2.6h3.6l-5.9-14.5H155.9z M159,21.6h-3.4l1.7-4.4L159,21.6z"/>
		<path class="st3" d="M173.4,20.8c0.5-0.2,0.9-0.4,1.3-0.6c0.6-0.4,1-0.9,1.3-1.4c0.3-0.6,0.5-1.2,0.5-1.9c0-0.7-0.1-1.4-0.4-1.9
			c-0.3-0.6-0.7-1-1.3-1.4c-0.6-0.4-1.2-0.7-2-0.9c-0.8-0.2-1.7-0.3-2.7-0.3h-1.6h-2.2h-1.4v14.5h3.5v-5.4h1.3l3.3,5.4h4L173.4,20.8
			z M168.4,15.2h1.5c0.9,0,1.6,0.1,2.1,0.4s0.8,0.7,0.8,1.2c0,0.5-0.3,0.9-0.8,1.2c-0.5,0.3-1.2,0.4-2.1,0.4h-1.5V15.2z"/>
		<rect x="177.7" y="12.3" class="st3" width="3.5" height="14.5"/>
		<polygon class="st3" points="190.5,19.8 186.1,12.3 182.5,12.3 182.5,26.8 186.1,26.8 186.1,19 189.4,24.6 191.7,24.6 195,19 
			195,26.8 198.6,26.8 198.6,12.3 195,12.3 		"/>
		<polygon class="st3" points="72.1,32.7 69.8,32.7 69.8,33.4 72.1,33.4 72.1,39.9 72.9,39.9 72.9,33.4 75.2,33.4 75.2,32.7 
			72.9,32.7 		"/>
		<polygon class="st3" points="81.8,36.6 85.1,36.6 85.1,35.9 81.8,35.9 81.8,33.4 85.9,33.4 85.9,32.7 81.8,32.7 81.3,32.7 
			81,32.7 81,39.9 81.3,39.9 81.8,39.9 86.1,39.9 86.1,39.2 81.8,39.2 		"/>
		<polygon class="st3" points="97.2,32.7 96.2,32.7 92.6,36.2 92.6,32.7 91.8,32.7 91.8,39.9 92.6,39.9 92.6,37.3 93.8,36.1 
			96.7,39.9 97.6,39.9 94.3,35.6 		"/>
		<polygon class="st3" points="108,38.5 103.9,32.7 103.1,32.7 103.1,39.9 103.9,39.9 103.9,34.1 108,39.9 108,39.9 108.8,39.9 
			108.8,32.7 108,32.7 		"/>
		<path class="st3" d="M120.6,33.5c-0.3-0.3-0.7-0.6-1.1-0.8c-0.4-0.2-0.9-0.3-1.4-0.3c-0.5,0-1,0.1-1.4,0.3
			c-0.4,0.2-0.8,0.4-1.1,0.8c-0.3,0.3-0.5,0.7-0.7,1.2c-0.2,0.5-0.2,1-0.2,1.5c0,0.6,0.1,1.1,0.2,1.5c0.2,0.5,0.4,0.9,0.7,1.2
			c0.3,0.3,0.7,0.6,1.1,0.8c0.4,0.2,0.9,0.3,1.4,0.3c0.5,0,1-0.1,1.4-0.3c0.4-0.2,0.8-0.4,1.1-0.8c0.3-0.3,0.5-0.7,0.7-1.2
			c0.2-0.5,0.2-1,0.2-1.5c0-0.6-0.1-1.1-0.2-1.5C121.1,34.3,120.9,33.9,120.6,33.5z M120.5,37.5c-0.1,0.4-0.3,0.7-0.5,1
			c-0.2,0.3-0.5,0.5-0.8,0.6c-0.3,0.1-0.7,0.2-1.1,0.2s-0.7-0.1-1.1-0.2c-0.3-0.1-0.6-0.3-0.8-0.6c-0.2-0.3-0.4-0.6-0.5-1
			c-0.1-0.4-0.2-0.8-0.2-1.2c0-0.5,0.1-0.9,0.2-1.2c0.1-0.4,0.3-0.7,0.5-0.9c0.2-0.3,0.5-0.5,0.8-0.6c0.3-0.1,0.7-0.2,1.1-0.2
			s0.8,0.1,1.1,0.2c0.3,0.1,0.6,0.3,0.8,0.6c0.2,0.3,0.4,0.6,0.5,0.9c0.1,0.4,0.2,0.8,0.2,1.2C120.7,36.7,120.6,37.1,120.5,37.5z"/>
		<polygon class="st3" points="128.1,32.7 127.3,32.7 127.3,39.9 127.9,39.9 128.1,39.9 132.1,39.9 132.1,39.2 128.1,39.2 		"/>
		<path class="st3" d="M143.3,33.5c-0.3-0.3-0.7-0.6-1.1-0.8c-0.4-0.2-0.9-0.3-1.4-0.3c-0.5,0-1,0.1-1.4,0.3
			c-0.4,0.2-0.8,0.4-1.1,0.8c-0.3,0.3-0.5,0.7-0.7,1.2c-0.2,0.5-0.2,1-0.2,1.5c0,0.6,0.1,1.1,0.2,1.5c0.2,0.5,0.4,0.9,0.7,1.2
			c0.3,0.3,0.7,0.6,1.1,0.8c0.4,0.2,0.9,0.3,1.4,0.3c0.5,0,1-0.1,1.4-0.3c0.4-0.2,0.8-0.4,1.1-0.8c0.3-0.3,0.5-0.7,0.7-1.2
			c0.2-0.5,0.2-1,0.2-1.5c0-0.6-0.1-1.1-0.2-1.5C143.9,34.3,143.6,33.9,143.3,33.5z M143.3,37.5c-0.1,0.4-0.3,0.7-0.5,1
			c-0.2,0.3-0.5,0.5-0.8,0.6c-0.3,0.1-0.7,0.2-1.1,0.2c-0.4,0-0.7-0.1-1.1-0.2c-0.3-0.1-0.6-0.3-0.8-0.6c-0.2-0.3-0.4-0.6-0.5-1
			c-0.1-0.4-0.2-0.8-0.2-1.2c0-0.5,0.1-0.9,0.2-1.2c0.1-0.4,0.3-0.7,0.5-0.9c0.2-0.3,0.5-0.5,0.8-0.6c0.3-0.1,0.7-0.2,1.1-0.2
			c0.4,0,0.8,0.1,1.1,0.2c0.3,0.1,0.6,0.3,0.8,0.6c0.2,0.3,0.4,0.6,0.5,0.9c0.1,0.4,0.2,0.8,0.2,1.2
			C143.4,36.7,143.4,37.1,143.3,37.5z"/>
		<path class="st3" d="M152.9,37.6c0,0.3,0,0.5-0.1,0.7c-0.1,0.2-0.1,0.4-0.3,0.5c-0.1,0.2-0.3,0.3-0.5,0.3
			c-0.2,0.1-0.4,0.1-0.7,0.1c-0.3,0-0.6,0-0.8-0.1s-0.4-0.3-0.6-0.5l-0.6,0.4c0.2,0.3,0.5,0.5,0.8,0.7c0.4,0.2,0.8,0.3,1.3,0.3
			c0.4,0,0.7-0.1,1-0.2s0.5-0.3,0.7-0.5c0.2-0.2,0.3-0.5,0.4-0.8c0.1-0.3,0.1-0.6,0.1-1v-4.9h-0.8V37.6z"/>
		<path class="st3" d="M160.1,32.6c-0.2,0-0.3,0.1-0.5,0.2c-0.1,0.1-0.2,0.3-0.2,0.5s0.1,0.3,0.2,0.5c0.1,0.1,0.3,0.2,0.5,0.2
			c0.2,0,0.3-0.1,0.5-0.2c0.1-0.1,0.2-0.3,0.2-0.5s-0.1-0.3-0.2-0.5C160.4,32.7,160.3,32.6,160.1,32.6z"/>
		<rect x="159.7" y="34.7" class="st3" width="0.8" height="5.2"/>
		<polygon class="st3" points="167.3,32.7 166.5,32.7 166.5,39.9 167,39.9 167.3,39.9 171.2,39.9 171.2,39.2 167.3,39.2 		"/>
		<polygon class="st3" points="177.8,36.6 181.1,36.6 181.1,35.9 177.8,35.9 177.8,33.4 181.8,33.4 181.8,32.7 177.8,32.7 
			177.2,32.7 177,32.7 177,39.9 177.2,39.9 177.8,39.9 182,39.9 182,39.2 177.8,39.2 		"/>
		<path class="st3" d="M191.4,36.8c0.3-0.1,0.6-0.2,0.9-0.4c0.2-0.2,0.4-0.4,0.6-0.7c0.1-0.3,0.2-0.6,0.2-0.9c0-0.3-0.1-0.6-0.2-0.9
			c-0.1-0.3-0.3-0.5-0.6-0.7c-0.2-0.2-0.6-0.3-0.9-0.4c-0.4-0.1-0.8-0.1-1.3-0.1h-1.4H188h-0.2v7.2h0.8V37h1.7c0.1,0,0.1,0,0.2,0
			l1.8,3h0.9l-1.9-3.1C191.3,36.8,191.4,36.8,191.4,36.8z M188.6,33.4h1.7c0.6,0,1.1,0.1,1.4,0.4c0.4,0.2,0.5,0.6,0.5,1.1
			c0,0.5-0.2,0.8-0.5,1s-0.8,0.4-1.4,0.4h-1.7V33.4z"/>
		<path class="st3" d="M199.8,32.8c-0.1-0.1-0.3-0.2-0.5-0.2c-0.2,0-0.3,0.1-0.5,0.2c-0.1,0.1-0.2,0.3-0.2,0.5s0.1,0.3,0.2,0.5
			c0.1,0.1,0.3,0.2,0.5,0.2c0.2,0,0.3-0.1,0.5-0.2c0.1-0.1,0.2-0.3,0.2-0.5S199.9,32.9,199.8,32.8z"/>
		<rect x="199" y="34.7" class="st3" width="0.8" height="5.2"/>
	</g>
</g>
<g>
</g>
<g>
</g>
<g>
</g>
<g>
</g>
<g>
</g>
<g>
</g>
</svg>
